Coordinates
version=1
nRows=14
nColumns=36
inDegrees=yes

Units are S.I. units (second, meters, Newtons, ...)
If the header above contains a line with 'inDegrees', this indicates whether rotational values are in degrees (yes) or radians (no).

endheader
time	pelvis_tilt	pelvis_list	pelvis_rotation	pelvis_tx	pelvis_ty	pelvis_tz	hip_flexion_r	hip_adduction_r	hip_rotation_r	knee_angle_r	knee_angle_r_beta	ankle_angle_r	subtalar_angle_r	mtp_angle_r	hip_flexion_l	hip_adduction_l	hip_rotation_l	knee_angle_l	knee_angle_l_beta	ankle_angle_l	subtalar_angle_l	mtp_angle_l	lumbar_extension	lumbar_bending	lumbar_rotation	arm_flex_r	arm_add_r	arm_rot_r	elbow_flex_r	pro_sup_r	arm_flex_l	arm_add_l	arm_rot_l	elbow_flex_l	pro_sup_l
      6.00000000	      5.48437124	     -2.06672853	      4.19457001	      0.25498423	      0.62878613	     -0.17208557	     41.44340415	    -18.75879976	     -4.21388460	      7.62194664	      0.13302806	     -7.78982210	      7.04753311	     -7.49999987	     48.16504629	      9.99582302	     -2.76409624	     97.91100354	      1.70886939	     26.46290560	    -31.81340463	     -7.49999987	    -42.41227906	     -1.60739487	     -2.98673418	     99.39247989	      6.88607530	     68.29041451	    124.14277308	     93.40787539	     96.34964519	      5.49094210	     67.47469853	    110.71642349	     78.15244095
      6.01666670	      5.66406372	     -1.89241623	      4.11816774	      0.25340483	      0.63115340	     -0.17195033	     40.91165687	    -18.76260916	     -4.21670610	      7.25540702	      0.12663074	     -7.62714148	      7.09851535	     -7.49999987	     47.85583085	      9.96811917	     -2.76045127	     97.30955552	      1.69837214	     25.70525625	    -32.11688377	     -7.49999987	    -42.49551268	     -1.80611368	     -2.75464508	     99.48880140	      6.94794051	     67.90424713	    124.19697534	     97.80678679	     96.43724060	      5.59086688	     67.24245311	    110.30451497	     80.06952687
      6.03333330	      5.72707891	     -1.85373170	      4.02496082	      0.25374044	      0.63098220	     -0.17156875	     40.70593396	    -18.67031463	     -4.30218628	      6.92393440	      0.12084545	     -7.33055907	      7.34266497	     -7.49999987	     47.78126665	      9.93633272	     -2.76610687	     97.34408330	      1.69897476	     25.53941162	    -32.31065182	     -7.49999987	    -42.25659184	     -1.87292258	     -2.65413483	     99.42327412	      7.25346228	     68.01310107	    124.20402477	     97.71514770	     96.47648706	      5.55786159	     67.47772982	    110.42196374	     79.95250218
      6.05000000	      5.85904448	     -1.90270141	      3.92095631	      0.25366205	      0.63330158	     -0.17108527	     40.43531515	    -18.46132387	     -4.17995766	      6.71484188	      0.11719610	     -7.29231352	      7.19906631	     -7.49999987	     47.61209262	      9.78651709	     -2.65739234	     97.07555344	      1.69428803	     25.10680057	    -32.43148856	     -7.49999987	    -42.09513700	     -1.82463525	     -2.43684438	     99.40776923	      7.45385042	     68.14333681	    124.17033464	     97.92908749	     96.51115800	      5.52174080	     67.68965714	    110.55122388	     79.96317820
      6.06666670	      5.85625011	     -1.91240428	      3.89821322	      0.25157663	      0.63426500	     -0.17046873	     40.54610509	    -18.36208003	     -4.02041346	      6.87959068	      0.12007151	     -7.16556162	      6.80715863	     -7.49999987	     47.68517755	      9.73665077	     -2.63740340	     96.73304321	      1.68831010	     25.10888658	    -32.40423950	     -7.49999987	    -41.82847661	     -1.83468863	     -2.49146574	     99.46315898	      7.73904935	     68.19206216	    124.08469868	     97.64794200	     96.83709394	      5.49653354	     68.02698858	    110.33235372	     79.47169291
      6.08333330	      5.85124761	     -1.91853926	      3.91818706	      0.25045837	      0.63567789	     -0.17055300	     40.50821707	    -18.25546948	     -3.91832186	      6.81501790	      0.11894450	     -6.98323713	      6.62539849	     -7.49999987	     47.81281899	      9.76002479	     -2.63214340	     96.45446893	      1.68344806	     24.83814142	    -32.53955586	     -7.49999987	    -41.65175042	     -1.84024222	     -2.45746145	     99.61045353	      7.83482152	     68.05854224	    123.97636228	     97.69608679	     97.16624294	      5.31770307	     67.65693791	    108.92756263	     78.85305708
      6.10000000	      5.82577446	     -1.98744215	      4.05538982	      0.25080586	      0.63887536	     -0.17111279	     40.33785857	    -18.21522740	     -3.90812727	      6.91483781	      0.12068669	     -6.67172240	      6.58857489	     -7.49999987	     47.51765811	      9.85476554	     -2.40714767	     96.08356842	      1.67697463	     24.93639591	    -32.43957221	     -7.49999987	    -41.45450543	     -1.66760233	     -2.47960491	     99.98866785	      7.86814996	     68.03577087	    123.61527376	     97.64021598	     97.21631219	      5.22499950	     67.41773732	    107.68177767	     78.37030660
      6.11666670	      5.85764784	     -1.91434916	      4.03051986	      0.25158916	      0.64190212	     -0.17113132	     40.16293341	    -18.20890047	     -3.68298771	      7.05109172	      0.12306477	     -6.39060976	      6.18638874	     -7.49999987	     46.87140272	      9.94948736	     -2.36998838	     95.31634610	      1.66358407	     24.80907426	    -32.42157633	     -7.49999987	    -41.20922722	     -1.74891806	     -2.37271440	     99.95730403	      7.79043564	     67.98941483	    123.29150755	     97.44896011	     96.95400162	      5.13783263	     67.38583863	    106.96350003	     78.04658443
      6.13333330	      5.91282080	     -1.82153109	      4.05333609	      0.25399440	      0.64413890	     -0.17129918	     39.83139746	    -18.28449512	     -3.80134055	      6.85155623	      0.11958222	     -5.94824253	      6.35881645	     -7.49999987	     46.21076747	     10.13640624	     -2.23607705	     94.64927648	      1.65194151	     24.78452709	    -32.40072675	     -7.49999987	    -40.78508654	     -1.89032877	     -2.37155712	     99.58408406	      7.78545366	     68.16312105	    123.33513302	     97.33078356	     96.43891514	      5.14540695	     67.43853272	    106.47063886	     77.64028633
      6.15000000	      6.12502166	     -1.70619748	      4.16494428	      0.25528654	      0.64623374	     -0.17112137	     39.02714254	    -18.41710299	     -3.62449941	      6.33231651	      0.11051977	     -5.32728505	      6.56588064	     -7.49999987	     45.18955401	     10.33512020	     -2.00629952	     93.86164554	      1.63819476	     25.02422977	    -32.33102157	     -7.49999987	    -40.55999417	     -1.99596284	     -2.33337162	     99.55104085	      7.72868428	     68.51306021	    123.19325063	     91.11112419	     96.15694623	      5.22179787	     67.38582805	    105.94813390	     74.90871183
      6.16666670	      5.92973710	     -1.58512990	      4.23183158	      0.25685444	      0.65102230	     -0.17035908	     38.87963826	    -18.52313276	     -3.86721324	      6.17651436	      0.10780051	     -4.71666612	      6.70087425	     -7.49999987	     44.80579441	     10.31561043	     -2.12705245	     93.12804644	      1.62539104	     24.79327511	    -32.44109615	     -7.49999987	    -39.76983267	     -2.17313719	     -2.22365512	     99.07425797	      7.66370573	     68.50652453	    123.44948793	     97.47864840	     95.38510297	      5.29071910	     67.13954856	    105.68086740	     77.52796362
      6.18333330	      5.90762223	     -1.40349229	      4.03023768	      0.25660493	      0.65375445	     -0.17067782	     38.57126025	    -18.51720110	     -3.86924551	      5.72009337	      0.09983446	     -4.37030164	      6.68990047	     -7.49999987	     44.27302844	     10.22351512	     -2.41496587	     92.22118770	      1.60956337	     24.17263185	    -32.77580702	     -7.49999987	    -39.17895841	     -2.51697885	     -1.99367069	     98.67836388	      7.46036602	     69.00105033	    123.62552132	     91.28799946	     94.64617134	      5.18772558	     67.02453636	    105.76650377	     74.57106921
      6.20000000	      5.88659858	     -1.39433293	      3.95965504	      0.25812264	      0.65833044	     -0.17076740	     38.01234825	    -18.41100479	     -4.08566053	      5.28352824	      0.09221496	     -3.83079347	      6.60678995	     -7.49999987	     43.47085836	     10.09355561	     -2.18388854	     91.05733732	      1.58925034	     23.94562012	    -32.83828958	     -7.49999987	    -38.52966716	     -2.61317685	     -1.77554249	     97.97872552	      7.46111852	     68.92874551	    124.07594614	     97.90151398	     93.81558105	      5.28638549	     66.76264758	    105.76322433	     77.48173153
      6.21666670	      6.04185289	     -1.66714520	      3.65011435	      0.26187353	      0.66433198	     -0.17135383	     37.43937313	    -17.97262191	     -4.00845641	      5.52888638	      0.09649727	     -3.05791772	      5.97818415	     -7.49999987	     42.36307887	      9.48202456	     -2.08455860	     90.02662407	      1.57126100	     22.86422156	    -33.07182903	     -7.49999987	    -38.03427161	     -2.47600268	     -1.39538138	     97.41200397	      7.61507949	     69.18266167	    124.60312984	     98.02534950	     92.89647833	      5.15654254	     66.66404769	    106.97428272	     77.86537157
